<?xml version="1.0" encoding="UTF-8" standalone="no"?>
<svg
   version="1.1"
   id="Layer_1"
   x="0px"
   y="0px"
   viewBox="0 0 45.000001 45.000001"
   xml:space="preserve"
   sodipodi:docname="o.svg"
   inkscape:version="1.3.2 (091e20e, 2023-11-25, custom)"
   width="45"
   height="45"
   xmlns:inkscape="http://www.inkscape.org/namespaces/inkscape"
   xmlns:sodipodi="http://sodipodi.sourceforge.net/DTD/sodipodi-0.dtd"
   xmlns="http://www.w3.org/2000/svg"
   xmlns:svg="http://www.w3.org/2000/svg"><defs
   id="defs1" /><sodipodi:namedview
   id="namedview1"
   pagecolor="#ffffff"
   bordercolor="#000000"
   borderopacity="0.25"
   inkscape:showpageshadow="2"
   inkscape:pageopacity="0.0"
   inkscape:pagecheckerboard="false"
   inkscape:deskcolor="#d1d1d1"
   inkscape:zoom="6.6394448"
   inkscape:cx="61.375614"
   inkscape:cy="60.321309"
   inkscape:window-width="1920"
   inkscape:window-height="1009"
   inkscape:window-x="1358"
   inkscape:window-y="-8"
   inkscape:window-maximized="1"
   inkscape:current-layer="g1" />
<g
   id="g1">



<path
   d="m 22.428155,0 c 6.19519,0 11.802228,2.5094439 15.86047,6.5676851 4.058241,4.0582419 6.567685,9.6652799 6.567685,15.8604699 0,6.19519 -2.509444,11.802228 -6.567685,15.86047 -4.058242,4.058241 -9.66528,6.567685 -15.86047,6.567685 -6.19519,0 -11.802228,-2.509444 -15.8604698,-6.567685 C 2.5094439,34.230383 0,28.623345 0,22.428155 0,16.232965 2.5094439,10.625927 6.5676852,6.5676852 10.635729,2.5192464 16.242768,0 22.428155,0 Z m 8.410558,14.017597 c -2.156553,-2.146751 -5.126715,-3.479893 -8.410558,-3.479893 -3.283843,0 -6.254005,1.333142 -8.410558,3.479893 -2.156553,2.146751 -3.479893,5.126715 -3.479893,8.410558 0,3.283843 1.333142,6.254005 3.479893,8.410558 2.146751,2.146751 5.126715,3.479893 8.410558,3.479893 3.283843,0 6.254005,-1.333142 8.410558,-3.479893 2.146751,-2.156553 3.479893,-5.126715 3.479893,-8.410558 0,-3.283843 -1.32334,-6.254005 -3.479893,-8.410558 z"
   id="overmelho"
   style="display:inline;fill:#ff0000;fill-opacity:1;stroke-width:0.980252"
   inkscape:label="O vermelho"
   sodipodi:nodetypes="ssssssscscssscscsc" /></g></svg>
