<?xml version="1.0" encoding="UTF-8" standalone="no"?>
<svg
   version="1.1"
   id="Layer_1"
   x="0px"
   y="0px"
   viewBox="0 0 100 100"
   xml:space="preserve"
   sodipodi:docname="o.svg"
   inkscape:version="1.3.2 (091e20e, 2023-11-25, custom)"
   width="100"
   height="100"
   xmlns:inkscape="http://www.inkscape.org/namespaces/inkscape"
   xmlns:sodipodi="http://sodipodi.sourceforge.net/DTD/sodipodi-0.dtd"
   xmlns="http://www.w3.org/2000/svg"
   xmlns:svg="http://www.w3.org/2000/svg"><defs
   id="defs1" /><sodipodi:namedview
   id="namedview1"
   pagecolor="#ffffff"
   bordercolor="#000000"
   borderopacity="0.25"
   inkscape:showpageshadow="2"
   inkscape:pageopacity="0.0"
   inkscape:pagecheckerboard="false"
   inkscape:deskcolor="#d1d1d1"
   inkscape:zoom="6.6394448"
   inkscape:cx="61.375614"
   inkscape:cy="60.321309"
   inkscape:window-width="1920"
   inkscape:window-height="1009"
   inkscape:window-x="1358"
   inkscape:window-y="-8"
   inkscape:window-maximized="1"
   inkscape:current-layer="g1" />
<g
   id="g1">



<path
   d="m 50,15 c 9.7,0 18.4,3.9 24.8,10.2 C 81.1,31.6 85,40.3 85,50 85,59.7 81.1,68.4 74.8,74.8 68.4,81.1 59.7,85 50,85 40.3,85 31.6,81.1 25.2,74.8 18.9,68.4 15,59.7 15,50 15,40.3 18.9,31.6 25.2,25.2 31.6,18.9 40.3,15 50,15 Z M 63.1,36.9 C 59.8,33.5 55.1,31.4 50,31.4 c -5.1,0 -9.8,2.1 -13.1,5.4 -3.4,3.4 -5.4,8 -5.4,13.1 0,5.1 2.1,9.8 5.4,13.1 3.4,3.4 8,5.4 13.1,5.4 5.1,0 9.8,-2.1 13.1,-5.4 3.4,-3.4 5.4,-8 5.4,-13.1 0,-5.1 -2.1,-9.8 -5.4,-13.1 z"
   id="overmelho"
   style="display:inline;fill:#ff0000;fill-opacity:1;stroke-width:1.52973"
   inkscape:label="O vermelho"
   sodipodi:nodetypes="ssssssscscssscscsc"
   onmouseover="this.style.opacity=0.5;"
   onmouseout="this.style.opacity=1;" /></g></svg>
