<?xml version="1.0" encoding="UTF-8" standalone="no"?>
<svg
   version="1.1"
   id="Layer_1"
   x="0px"
   y="0px"
   viewBox="0 0 100 100"
   xml:space="preserve"
   sodipodi:docname="o.svg"
   inkscape:version="1.3.2 (091e20e, 2023-11-25, custom)"
   width="100"
   height="100"
   xmlns:inkscape="http://www.inkscape.org/namespaces/inkscape"
   xmlns:sodipodi="http://sodipodi.sourceforge.net/DTD/sodipodi-0.dtd"
   xmlns="http://www.w3.org/2000/svg"
   xmlns:svg="http://www.w3.org/2000/svg"><defs
   id="defs1" /><sodipodi:namedview
   id="namedview1"
   pagecolor="#ffffff"
   bordercolor="#000000"
   borderopacity="0.25"
   inkscape:showpageshadow="2"
   inkscape:pageopacity="0.0"
   inkscape:pagecheckerboard="false"
   inkscape:deskcolor="#d1d1d1"
   inkscape:zoom="6.6394448"
   inkscape:cx="61.375614"
   inkscape:cy="60.321309"
   inkscape:window-width="1920"
   inkscape:window-height="1009"
   inkscape:window-x="1358"
   inkscape:window-y="-8"
   inkscape:window-maximized="1"
   inkscape:current-layer="g1" />
<g
   id="g1">



<path
   d="m 50,15 c 9.667833,0 18.417832,3.916084 24.750874,10.249127 C 81.083916,31.582168 85,40.332167 85,50 85,59.667833 81.083916,68.417832 74.750874,74.750874 68.417832,81.083916 59.667833,85 50,85 40.332167,85 31.582168,81.083916 25.249127,74.750874 18.916084,68.417832 15,59.667833 15,50 15,40.332167 18.916084,31.582168 25.249127,25.249127 31.597465,18.931381 40.347465,15 50,15 Z M 63.125,36.875 C 59.759617,33.524913 55.124564,31.444492 50,31.444492 c -5.124564,0 -9.759617,2.080421 -13.125,5.430508 -3.365383,3.350088 -5.430508,8.000436 -5.430508,13.125 0,5.124564 2.080421,9.759617 5.430508,13.125 3.350088,3.350087 8.000436,5.430508 13.125,5.430508 5.124564,0 9.759617,-2.080421 13.125,-5.430508 3.350087,-3.365383 5.430508,-8.000436 5.430508,-13.125 0,-5.124564 -2.065125,-9.759617 -5.430508,-13.125 z"
   id="overmelho"
   style="display:inline;fill:#ff0000;fill-opacity:1;stroke-width:1.52973"
   inkscape:label="O vermelho"
   sodipodi:nodetypes="ssssssscscssscscsc" /></g></svg>
