<?xml version="1.0" encoding="UTF-8" standalone="no"?>
<svg
   version="1.1"
   id="Layer_1"
   x="0px"
   y="0px"
   viewBox="0 0 122.88 122.45"
   style="enable-background:new 0 0 122.88 122.45"
   xml:space="preserve"
   sodipodi:docname="jogo-velha.svg"
   inkscape:version="1.3.2 (091e20e, 2023-11-25, custom)"
   xmlns:inkscape="http://www.inkscape.org/namespaces/inkscape"
   xmlns:sodipodi="http://sodipodi.sourceforge.net/DTD/sodipodi-0.dtd"
   xmlns="http://www.w3.org/2000/svg"
   xmlns:svg="http://www.w3.org/2000/svg"><defs
   id="defs1" /><sodipodi:namedview
   id="namedview1"
   pagecolor="#ffffff"
   bordercolor="#000000"
   borderopacity="0.25"
   inkscape:showpageshadow="2"
   inkscape:pageopacity="0.0"
   inkscape:pagecheckerboard="0"
   inkscape:deskcolor="#d1d1d1"
   inkscape:zoom="6.6394448"
   inkscape:cx="61.375614"
   inkscape:cy="37.126598"
   inkscape:window-width="1920"
   inkscape:window-height="1009"
   inkscape:window-x="1358"
   inkscape:window-y="-8"
   inkscape:window-maximized="1"
   inkscape:current-layer="g1" />
<g
   id="g1">
<path
   d="M 67.280615,0 V 55.75 H 123.03062 V 66.5 H 67.280615 v 55.75 h -10.75 V 66.5 h -55.75 V 55.75 h 55.75 V 0 Z"
   id="cerquilha"
   inkscape:label="cerquilha"
   sodipodi:nodetypes="ccccccccccccc" />
<path
   d="m 119.67,87.01 -12.23,11.64 12.57,11.96 -7.39,7.77 L 99.66,106.05 86.7,118.39 79.31,110.62 91.88,98.66 79.65,87.01 87.04,79.25 99.66,91.26 112.28,79.25 Z M 44.08,11.16 31.68,22.96 44.08,34.76 36.69,42.53 23.9,30.36 11.11,42.53 3.72,34.76 16.12,22.96 3.72,11.16 11.11,3.4 23.9,15.56 36.69,3.39 Z"
   id="xazul"
   inkscape:label="X azul"
   style="display:inline;fill:#0000b9;fill-opacity:1"
   sodipodi:nodetypes="cccccccccccccccccccccccccc" />

<path
   d="m 22.88,76.7 c 6.32,0 12.04,2.56 16.18,6.7 4.14,4.14 6.7,9.86 6.7,16.18 0,6.32 -2.56,12.04 -6.7,16.18 -4.14,4.14 -9.86,6.7 -16.18,6.7 -6.32,0 -12.04,-2.56 -16.18,-6.7 C 2.56,111.61 0,105.89 0,99.58 0,93.26 2.56,87.54 6.7,83.4 10.84,79.26 16.56,76.7 22.88,76.7 Z M 31.46,91 c -2.19,-2.19 -5.23,-3.55 -8.58,-3.55 -3.35,0 -6.39,1.36 -8.58,3.55 -2.19,2.19 -3.55,5.23 -3.55,8.58 0,3.35 1.36,6.39 3.55,8.58 2.19,2.19 5.23,3.55 8.58,3.55 3.35,0 6.38,-1.36 8.58,-3.55 2.19,-2.2 3.55,-5.23 3.55,-8.58 0,-3.35 -1.36,-6.39 -3.55,-8.58 z M 99.49,0.08 c 6.32,0 12.04,2.56 16.18,6.7 4.14,4.14 6.7,9.86 6.7,16.18 0,6.32 -2.56,12.04 -6.7,16.18 -4.14,4.14 -9.86,6.7 -16.18,6.7 -6.32,0 -12.04,-2.56 -16.18,-6.7 -4.14,-4.14 -6.7,-9.86 -6.7,-16.18 0,-6.32 2.56,-12.04 6.7,-16.18 4.15,-4.13 9.87,-6.7 16.18,-6.7 z m 8.58,14.3 c -2.2,-2.19 -5.23,-3.55 -8.58,-3.55 -3.35,0 -6.38,1.36 -8.58,3.55 -2.2,2.19 -3.55,5.23 -3.55,8.58 0,3.35 1.36,6.38 3.55,8.58 2.19,2.19 5.23,3.55 8.58,3.55 3.35,0 6.38,-1.36 8.58,-3.55 2.19,-2.2 3.55,-5.23 3.55,-8.58 0,-3.35 -1.35,-6.38 -3.55,-8.58 z"
   id="overmelho"
   style="display:inline;fill:#ff0000;fill-opacity:1"
   inkscape:label="O vermelho"
   sodipodi:nodetypes="ssssscssssssssscssssssssscscssscscsc" /></g></svg>
